HIERARCHY
ROOT Hips
{
	OFFSET 0.000000 0.000000 0.255553
	CHANNELS 6 Xposition Yposition Zposition Xrotation Yrotation Zrotation
	JOINT Spine
	{
		OFFSET 0.000000 0.003143 0.025413
		CHANNELS 6 Xposition Yposition Zposition Xrotation Yrotation Zrotation
		JOINT Spine1
		{
			OFFSET -0.000003 0.003642 0.029822
			CHANNELS 6 Xposition Yposition Zposition Xrotation Yrotation Zrotation
			JOINT Spine2
			{
				OFFSET -0.000003 0.004165 0.034213
				CHANNELS 6 Xposition Yposition Zposition Xrotation Yrotation Zrotation
				JOINT Neck
				{
					OFFSET -0.000003 -0.002031 0.038496
					CHANNELS 6 Xposition Yposition Zposition Xrotation Yrotation Zrotation
					JOINT Head
					{
						OFFSET -0.000002 -0.008047 0.026433
						CHANNELS 6 Xposition Yposition Zposition Xrotation Yrotation Zrotation
						JOINT HeadTop_End
						{
							OFFSET -0.000004 -0.016995 0.047311
							CHANNELS 6 Xposition Yposition Zposition Xrotation Yrotation Zrotation
							End Site
							{
								OFFSET -0.000004 0.000000 0.050271
							}
						}
					}
				}
				JOINT LeftShoulder
				{
					OFFSET 0.015634 -0.001807 0.023332
					CHANNELS 6 Xposition Yposition Zposition Xrotation Yrotation Zrotation
					JOINT LeftArm
					{
						OFFSET 0.032408 0.006661 -0.000682
						CHANNELS 6 Xposition Yposition Zposition Xrotation Yrotation Zrotation
						JOINT LeftForeArm
						{
							OFFSET 0.070179 0.000000 0.000000
							CHANNELS 6 Xposition Yposition Zposition Xrotation Yrotation Zrotation
							JOINT LeftHand
							{
								OFFSET 0.070717 0.000000 0.000000
								CHANNELS 6 Xposition Yposition Zposition Xrotation Yrotation Zrotation
								JOINT LeftHandThumb1
								{
									OFFSET 0.009703 -0.007690 -0.005550
									CHANNELS 6 Xposition Yposition Zposition Xrotation Yrotation Zrotation
									JOINT LeftHandThumb2
									{
										OFFSET 0.009412 -0.005434 -0.005434
										CHANNELS 6 Xposition Yposition Zposition Xrotation Yrotation Zrotation
										JOINT LeftHandThumb3
										{
											OFFSET 0.008692 -0.005019 -0.005019
											CHANNELS 6 Xposition Yposition Zposition Xrotation Yrotation Zrotation
											JOINT LeftHandThumb4
											{
												OFFSET 0.006862 -0.003962 -0.003962
												CHANNELS 6 Xposition Yposition Zposition Xrotation Yrotation Zrotation
												End Site
												{
													OFFSET 0.006147 -0.005031 -0.003920
												}
											}
										}
									}
								}
								JOINT LeftHandIndex1
								{
									OFFSET 0.031413 -0.007227 -0.000594
									CHANNELS 6 Xposition Yposition Zposition Xrotation Yrotation Zrotation
									JOINT LeftHandIndex2
									{
										OFFSET 0.009967 0.000000 0.000000
										CHANNELS 6 Xposition Yposition Zposition Xrotation Yrotation Zrotation
										JOINT LeftHandIndex3
										{
											OFFSET 0.008746 0.000000 0.000000
											CHANNELS 6 Xposition Yposition Zposition Xrotation Yrotation Zrotation
											JOINT LeftHandIndex4
											{
												OFFSET 0.007882 0.000000 0.000000
												CHANNELS 6 Xposition Yposition Zposition Xrotation Yrotation Zrotation
												End Site
												{
													OFFSET 0.007882 -0.000000 0.000000
												}
											}
										}
									}
								}
								JOINT LeftHandMiddle1
								{
									OFFSET 0.032716 0.000000 0.000000
									CHANNELS 6 Xposition Yposition Zposition Xrotation Yrotation Zrotation
									JOINT LeftHandMiddle2
									{
										OFFSET 0.009255 0.000000 0.000000
										CHANNELS 6 Xposition Yposition Zposition Xrotation Yrotation Zrotation
										JOINT LeftHandMiddle3
										{
											OFFSET 0.008860 0.000000 0.000000
											CHANNELS 6 Xposition Yposition Zposition Xrotation Yrotation Zrotation
											JOINT LeftHandMiddle4
											{
												OFFSET 0.009424 0.000000 0.000000
												CHANNELS 6 Xposition Yposition Zposition Xrotation Yrotation Zrotation
												End Site
												{
													OFFSET 0.009424 0.000012 0.000000
												}
											}
										}
									}
								}
								JOINT LeftHandRing1
								{
									OFFSET 0.031107 0.005676 0.000026
									CHANNELS 6 Xposition Yposition Zposition Xrotation Yrotation Zrotation
									JOINT LeftHandRing2
									{
										OFFSET 0.009222 0.000000 0.000000
										CHANNELS 6 Xposition Yposition Zposition Xrotation Yrotation Zrotation
										JOINT LeftHandRing3
										{
											OFFSET 0.008470 0.000000 0.000000
											CHANNELS 6 Xposition Yposition Zposition Xrotation Yrotation Zrotation
											JOINT LeftHandRing4
											{
												OFFSET 0.009373 0.000000 0.000000
												CHANNELS 6 Xposition Yposition Zposition Xrotation Yrotation Zrotation
												End Site
												{
													OFFSET 0.009373 -0.000014 -0.000000
												}
											}
										}
									}
								}
								JOINT LeftHandPinky1
								{
									OFFSET 0.027934 0.012102 -0.000579
									CHANNELS 6 Xposition Yposition Zposition Xrotation Yrotation Zrotation
									JOINT LeftHandPinky2
									{
										OFFSET 0.010593 0.000000 0.000000
										CHANNELS 6 Xposition Yposition Zposition Xrotation Yrotation Zrotation
										JOINT LeftHandPinky3
										{
											OFFSET 0.006645 0.000000 0.000000
											CHANNELS 6 Xposition Yposition Zposition Xrotation Yrotation Zrotation
											JOINT LeftHandPinky4
											{
												OFFSET 0.007488 0.000000 0.000000
												CHANNELS 6 Xposition Yposition Zposition Xrotation Yrotation Zrotation
												End Site
												{
													OFFSET 0.007488 0.000009 0.000000
												}
											}
										}
									}
								}
							}
						}
					}
				}
				JOINT RightShoulder
				{
					OFFSET -0.015638 -0.001807 0.023329
					CHANNELS 6 Xposition Yposition Zposition Xrotation Yrotation Zrotation
					JOINT RightArm
					{
						OFFSET -0.032408 0.006661 -0.000680
						CHANNELS 6 Xposition Yposition Zposition Xrotation Yrotation Zrotation
						JOINT RightForeArm
						{
							OFFSET -0.070179 0.000000 0.000000
							CHANNELS 6 Xposition Yposition Zposition Xrotation Yrotation Zrotation
							JOINT RightHand
							{
								OFFSET -0.070717 0.000000 0.000000
								CHANNELS 6 Xposition Yposition Zposition Xrotation Yrotation Zrotation
								JOINT RightHandThumb1
								{
									OFFSET -0.009703 -0.007690 -0.005550
									CHANNELS 6 Xposition Yposition Zposition Xrotation Yrotation Zrotation
									JOINT RightHandThumb2
									{
										OFFSET -0.009412 -0.005434 -0.005434
										CHANNELS 6 Xposition Yposition Zposition Xrotation Yrotation Zrotation
										JOINT RightHandThumb3
										{
											OFFSET -0.008692 -0.005019 -0.005019
											CHANNELS 6 Xposition Yposition Zposition Xrotation Yrotation Zrotation
											JOINT RightHandThumb4
											{
												OFFSET -0.006862 -0.003962 -0.003962
												CHANNELS 6 Xposition Yposition Zposition Xrotation Yrotation Zrotation
												End Site
												{
													OFFSET -0.006143 -0.005035 -0.003922
												}
											}
										}
									}
								}
								JOINT RightHandIndex1
								{
									OFFSET -0.031413 -0.007227 -0.000594
									CHANNELS 6 Xposition Yposition Zposition Xrotation Yrotation Zrotation
									JOINT RightHandIndex2
									{
										OFFSET -0.009967 0.000000 0.000000
										CHANNELS 6 Xposition Yposition Zposition Xrotation Yrotation Zrotation
										JOINT RightHandIndex3
										{
											OFFSET -0.008746 0.000000 0.000000
											CHANNELS 6 Xposition Yposition Zposition Xrotation Yrotation Zrotation
											JOINT RightHandIndex4
											{
												OFFSET -0.007882 0.000000 0.000000
												CHANNELS 6 Xposition Yposition Zposition Xrotation Yrotation Zrotation
												End Site
												{
													OFFSET -0.007882 0.000022 0.000001
												}
											}
										}
									}
								}
								JOINT RightHandMiddle1
								{
									OFFSET -0.032716 0.000000 0.000000
									CHANNELS 6 Xposition Yposition Zposition Xrotation Yrotation Zrotation
									JOINT RightHandMiddle2
									{
										OFFSET -0.009255 0.000000 0.000000
										CHANNELS 6 Xposition Yposition Zposition Xrotation Yrotation Zrotation
										JOINT RightHandMiddle3
										{
											OFFSET -0.008860 0.000000 0.000000
											CHANNELS 6 Xposition Yposition Zposition Xrotation Yrotation Zrotation
											JOINT RightHandMiddle4
											{
												OFFSET -0.009424 0.000000 0.000000
												CHANNELS 6 Xposition Yposition Zposition Xrotation Yrotation Zrotation
												End Site
												{
													OFFSET -0.009424 -0.000032 0.000001
												}
											}
										}
									}
								}
								JOINT RightHandRing1
								{
									OFFSET -0.031107 0.005676 0.000026
									CHANNELS 6 Xposition Yposition Zposition Xrotation Yrotation Zrotation
									JOINT RightHandRing2
									{
										OFFSET -0.009222 0.000000 0.000000
										CHANNELS 6 Xposition Yposition Zposition Xrotation Yrotation Zrotation
										JOINT RightHandRing3
										{
											OFFSET -0.008470 0.000000 0.000000
											CHANNELS 6 Xposition Yposition Zposition Xrotation Yrotation Zrotation
											JOINT RightHandRing4
											{
												OFFSET -0.009373 0.000000 0.000000
												CHANNELS 6 Xposition Yposition Zposition Xrotation Yrotation Zrotation
												End Site
												{
													OFFSET -0.009373 -0.000006 0.000001
												}
											}
										}
									}
								}
								JOINT RightHandPinky1
								{
									OFFSET -0.027934 0.012102 -0.000579
									CHANNELS 6 Xposition Yposition Zposition Xrotation Yrotation Zrotation
									JOINT RightHandPinky2
									{
										OFFSET -0.010593 0.000000 0.000000
										CHANNELS 6 Xposition Yposition Zposition Xrotation Yrotation Zrotation
										JOINT RightHandPinky3
										{
											OFFSET -0.006645 0.000000 0.000000
											CHANNELS 6 Xposition Yposition Zposition Xrotation Yrotation Zrotation
											JOINT RightHandPinky4
											{
												OFFSET -0.007488 0.000000 0.000000
												CHANNELS 6 Xposition Yposition Zposition Xrotation Yrotation Zrotation
												End Site
												{
													OFFSET -0.007488 0.000033 0.000002
												}
											}
										}
									}
								}
							}
						}
					}
				}
			}
		}
	}
	JOINT LeftUpLeg
	{
		OFFSET 0.023366 0.000142 -0.017046
		CHANNELS 6 Xposition Yposition Zposition Xrotation Yrotation Zrotation
		JOINT LeftLeg
		{
			OFFSET 0.000627 0.001320 -0.103959
			CHANNELS 6 Xposition Yposition Zposition Xrotation Yrotation Zrotation
			JOINT LeftFoot
			{
				OFFSET -0.000627 0.005273 -0.107679
				CHANNELS 6 Xposition Yposition Zposition Xrotation Yrotation Zrotation
				JOINT LeftToeBase
				{
					OFFSET 0.000957 -0.035766 -0.018460
					CHANNELS 6 Xposition Yposition Zposition Xrotation Yrotation Zrotation
					JOINT LeftToe_End
					{
						OFFSET -0.000364 -0.025602 -0.000449
						CHANNELS 6 Xposition Yposition Zposition Xrotation Yrotation Zrotation
						End Site
						{
							OFFSET -0.000364 -0.025602 -0.000449
						}
					}
				}
			}
		}
	}
	JOINT RightUpLeg
	{
		OFFSET -0.023366 0.000142 -0.017046
		CHANNELS 6 Xposition Yposition Zposition Xrotation Yrotation Zrotation
		JOINT RightLeg
		{
			OFFSET -0.000627 0.001317 -0.103959
			CHANNELS 6 Xposition Yposition Zposition Xrotation Yrotation Zrotation
			JOINT RightFoot
			{
				OFFSET 0.000627 0.005277 -0.107678
				CHANNELS 6 Xposition Yposition Zposition Xrotation Yrotation Zrotation
				JOINT RightToeBase
				{
					OFFSET -0.000957 -0.035766 -0.018460
					CHANNELS 6 Xposition Yposition Zposition Xrotation Yrotation Zrotation
					JOINT RightToe_End
					{
						OFFSET 0.000363 -0.025602 -0.000448
						CHANNELS 6 Xposition Yposition Zposition Xrotation Yrotation Zrotation
						End Site
						{
							OFFSET 0.000363 -0.025602 -0.000448
						}
					}
				}
			}
		}
	}
}
MOTION
Frames: 3
Frame Time: 0.033333
26.238125 -315.527130 -23.266024 -7.120860 -1.321277 8.809339 0.000011 0.003178 0.025401 24.855089 -1.640729 4.131711 -0.000011 0.003657 0.029825 2.893873 0.087985 0.945953 -0.000005 0.004153 0.034208 2.900951 0.112145 0.929990 -0.000006 -0.001987 0.038501 -4.958138 -1.176281 -1.661010 0.000008 -0.007965 0.026437 -41.841776 7.512217 -11.624969 0.000001 -0.017008 0.047327 0.000003 -0.000000 -0.000000 0.015633 -0.001774 0.023367 0.608408 3.817001 -1.667474 0.032399 0.006686 -0.000692 10.604635 77.321710 14.815187 0.070215 0.000005 0.000000 171.038769 162.838622 -241.022978 0.070725 -0.000027 0.000005 -5.597639 -7.687961 0.794324 0.009696 -0.007632 -0.005500 21.633699 -7.393895 -7.433298 0.009431 -0.005496 -0.005409 20.398143 2.931825 18.693142 0.008674 -0.004954 -0.005041 -24.019465 -14.006945 -18.593120 0.006857 -0.003996 -0.003928 -0.000001 0.000003 -0.000005 0.031412 -0.007173 -0.000568 -2.052316 40.191422 10.606679 0.009961 0.000022 0.000008 -12.048892 70.629388 16.946278 0.008748 -0.000043 -0.000003 -6.470521 61.463930 10.862624 0.007879 0.000031 0.000004 -0.000002 0.000001 -0.000000 0.032749 0.000045 0.000029 -8.837171 63.246199 17.471498 0.009249 0.000025 0.000006 -27.202975 79.216677 32.592399 0.008867 0.000006 -0.000005 -11.179891 69.616983 16.023882 0.009431 0.000006 -0.000008 0.000002 0.000002 -0.000003 0.031107 0.005758 0.000068 -95.014140 82.783430 89.083535 0.009243 0.000042 -0.000007 -82.388788 84.144427 88.228955 0.008466 -0.000045 0.000005 -16.018797 74.117026 21.105927 0.009361 -0.000016 0.000010 0.000002 0.000001 -0.000001 0.027919 0.012191 -0.000537 -81.437028 74.054127 88.761887 0.010603 0.000026 -0.000000 -119.408878 82.828085 125.472283 0.006647 0.000020 0.000005 -21.349884 77.113806 26.611175 0.007487 -0.000014 -0.000000 0.000001 -0.000001 0.000002 -0.015642 -0.001764 0.023313 0.203250 -7.472325 -2.037328 -0.032406 0.006660 -0.000676 -46.475810 -60.168523 -69.997377 -0.070163 -0.000031 -0.000003 -37.920859 -23.966208 53.087676 -0.070730 -0.000009 0.000029 2.616020 53.820955 -11.488610 -0.009675 -0.007683 -0.005564 24.293330 24.370125 -16.749084 -0.009366 -0.005422 -0.005447 18.366181 -9.582439 -8.555758 -0.008690 -0.005016 -0.005009 -8.691247 33.725691 -26.353841 -0.006889 -0.003969 -0.003988 0.000003 -0.000002 0.000003 -0.031387 -0.007220 -0.000609 -8.579331 -57.306387 -18.171271 -0.009969 -0.000018 -0.000018 -17.940921 -77.801674 -22.137591 -0.008723 0.000011 0.000007 -9.416912 -70.495100 -13.295846 -0.007891 0.000007 -0.000026 0.000001 0.000002 0.000001 -0.032692 0.000007 -0.000018 -16.398673 -54.520592 -16.591964 -0.009252 -0.000011 -0.000037 -19.753682 -78.669825 -23.989178 -0.008868 -0.000000 0.000004 -6.403287 -64.961581 -10.043213 -0.009404 -0.000007 0.000019 0.000002 0.000008 -0.000003 -0.031094 0.005699 0.000001 -48.252442 -80.795148 -41.925747 -0.009246 -0.000001 -0.000015 -43.592163 -83.752039 -48.079648 -0.008465 0.000024 0.000003 -7.288555 -66.904367 -11.012610 -0.009378 -0.000007 -0.000017 0.000005 0.000005 0.000001 -0.027899 0.012087 -0.000588 -150.439097 -76.158071 -142.222201 -0.010575 -0.000012 0.000006 -30.001705 -81.791659 -34.383367 -0.006634 -0.000006 0.000004 -4.297132 -58.556653 -7.656288 -0.007501 -0.000007 -0.000019 -0.000006 0.000001 0.000003 0.023380 0.000152 -0.017044 -39.045620 -37.476391 -4.280198 0.000638 0.001327 -0.103940 64.413144 3.294814 -15.056028 -0.000633 0.005291 -0.107667 -18.246955 21.646218 4.882400 0.000937 -0.035764 -0.018477 -1.067452 -1.470387 -6.754810 -0.000363 -0.025639 -0.000453 0.000000 -0.000000 -0.000001 -0.023370 0.000103 -0.017049 -25.694564 34.849053 0.010033 -0.000652 0.001330 -0.103972 74.233303 -1.919268 0.479772 0.000627 0.005280 -0.107671 -34.237860 -13.565870 -4.938766 -0.000961 -0.035799 -0.018446 -2.467037 -1.880509 -0.180265 0.000358 -0.025581 -0.000450 0.000000 -0.000001 0.000003 
27.382973 -315.327087 -23.337885 -7.258880 -5.665282 8.811654 -0.000008 0.003106 0.025422 26.155286 -0.256704 0.793315 -0.000007 0.003587 0.029818 3.085433 1.156243 0.332515 -0.000003 0.004149 0.034223 3.083795 1.186329 0.381495 -0.000003 -0.002074 0.038482 -5.645475 -0.390460 -1.420676 -0.000000 -0.008023 0.026426 -41.962237 6.023709 -10.931348 0.000001 -0.016976 0.047295 0.000001 -0.000000 -0.000000 0.015640 -0.001830 0.023309 0.623957 6.330164 -0.973951 0.032405 0.006636 -0.000671 -16.507633 71.318950 35.311395 0.070234 0.000003 0.000005 165.508529 162.053068 -229.159253 0.070715 -0.000012 -0.000007 -6.279815 -15.665478 -4.195527 0.009708 -0.007741 -0.005583 35.514620 -9.145277 -8.588984 0.009419 -0.005376 -0.005411 16.491415 0.953508 22.240501 0.008672 -0.004999 -0.005052 -21.502989 -9.275650 -16.969086 0.006876 -0.003952 -0.003943 -0.000003 0.000004 -0.000011 0.031427 -0.007304 -0.000633 -0.721869 32.447855 9.681259 0.009964 0.000027 -0.000004 -8.218115 65.205904 12.817119 0.008740 -0.000006 0.000000 -4.635402 55.936206 8.717511 0.007884 0.000028 -0.000014 0.000005 -0.000004 -0.000001 0.032738 -0.000043 -0.000003 -5.611049 54.192797 13.229909 0.009250 0.000026 -0.000003 -23.497519 77.982647 28.812654 0.008861 -0.000002 0.000002 -10.117118 68.234334 14.885012 0.009429 -0.000025 0.000008 0.000001 -0.000001 0.000000 0.031137 0.005621 -0.000026 -44.484062 80.801534 38.386671 0.009240 0.000012 0.000003 -76.790396 84.098412 82.600995 0.008465 -0.000005 -0.000029 -15.287148 73.579237 20.344205 0.009363 -0.000006 -0.000002 0.000005 -0.000001 -0.000001 0.027948 0.012064 -0.000604 -47.427577 70.249459 55.234271 0.010604 -0.000007 0.000008 -113.052403 83.312844 119.069240 0.006648 0.000044 -0.000011 -19.638225 76.297072 24.852436 0.007481 -0.000003 0.000005 -0.000002 0.000001 0.000001 -0.015636 -0.001860 0.023323 0.043790 -4.768491 -2.951331 -0.032404 0.006672 -0.000669 -42.186551 -68.961866 -67.011642 -0.070191 -0.000003 -0.000000 -30.617911 -23.265465 52.632270 -0.070713 -0.000005 0.000026 5.943889 41.861379 -21.127884 -0.009708 -0.007635 -0.005580 37.783319 25.864989 -15.681197 -0.009397 -0.005455 -0.005436 14.076304 -7.333449 -11.993231 -0.008724 -0.005031 -0.004982 -6.618753 28.718787 -26.070269 -0.006878 -0.003962 -0.003933 -0.000000 -0.000008 0.000001 -0.031432 -0.007194 -0.000606 -5.959970 -49.645619 -15.872661 -0.009967 -0.000002 0.000013 -10.975888 -72.464148 -14.939731 -0.008742 -0.000013 -0.000007 -6.415207 -64.990056 -10.056353 -0.007870 0.000008 0.000006 -0.000001 0.000005 0.000001 -0.032729 0.000032 -0.000037 -12.993310 -45.763791 -11.622544 -0.009256 0.000016 0.000007 -17.092444 -77.342890 -21.268763 -0.008858 -0.000040 -0.000015 -5.844003 -63.545006 -9.422319 -0.009431 0.000007 -0.000003 -0.000004 0.000003 0.000002 -0.031121 0.005708 -0.000017 -25.224788 -75.259922 -18.704354 -0.009206 -0.000002 0.000031 -39.887349 -83.353177 -44.351345 -0.008493 0.000009 0.000012 -7.014945 -66.338567 -10.714543 -0.009372 0.000054 -0.000001 -0.000004 -0.000000 -0.000001 -0.027918 0.012108 -0.000619 -100.159772 -83.730319 -93.351549 -0.010613 -0.000001 -0.000020 -26.714470 -81.027176 -31.058909 -0.006635 0.000007 -0.000016 -4.072000 -57.656188 -7.391131 -0.007496 0.000003 -0.000003 -0.000003 -0.000000 -0.000002 0.023371 0.000113 -0.017059 -35.908535 -33.800260 0.560890 0.000625 0.001311 -0.103969 64.866122 3.570379 -15.912389 -0.000596 0.005258 -0.107673 -19.114062 20.571430 4.849168 0.000938 -0.035794 -0.018471 -0.416954 -2.730315 -7.498847 -0.000372 -0.025608 -0.000453 -0.000000 -0.000000 -0.000001 -0.023367 0.000146 -0.017034 -27.107238 38.729129 4.606208 -0.000658 0.001310 -0.103971 74.637985 -1.665276 -1.212725 0.000632 0.005254 -0.107696 -33.897501 -14.140897 -5.093674 -0.000962 -0.035749 -0.018467 -2.542503 -1.702311 -0.584892 0.000373 -0.025607 -0.000447 -0.000001 -0.000001 -0.000001 
28.345850 -315.261871 -23.173456 -7.003722 -9.577631 8.880801 -0.000006 0.003132 0.025412 26.801102 0.869894 -2.344653 -0.000001 0.003598 0.029821 3.134654 2.315679 -0.204384 -0.000001 0.004156 0.034220 3.129497 2.356761 -0.077410 0.000005 -0.002000 0.038467 -6.252221 0.146486 -1.277789 -0.000007 -0.008036 0.026440 -41.543365 4.488914 -10.553999 0.000001 -0.016957 0.047306 0.000001 -0.000000 0.000000 0.015641 -0.001822 0.023316 0.556555 9.584396 0.160541 0.032405 0.006625 -0.000679 -27.551566 62.167617 35.775496 0.070186 0.000061 -0.000000 149.504754 160.100727 -209.301435 0.070713 -0.000009 0.000022 -10.304544 -32.150776 -15.066711 0.009732 -0.007699 -0.005526 47.210076 -8.174559 -8.478129 0.009412 -0.005396 -0.005476 17.919083 1.679672 20.936321 0.008679 -0.004980 -0.005068 -21.199025 -8.691949 -16.778636 0.006894 -0.003951 -0.003945 -0.000003 0.000005 0.000003 0.031430 -0.007236 -0.000595 0.061299 25.048850 8.799521 0.009971 0.000036 0.000039 -5.240180 57.999535 9.438782 0.008742 0.000007 0.000012 -3.027158 48.659685 6.689029 0.007916 -0.000021 -0.000004 0.000000 -0.000001 0.000004 0.032751 0.000023 0.000016 -4.218307 47.089305 10.730842 0.009257 0.000023 -0.000009 -20.826941 76.862502 26.076585 0.008896 0.000004 0.000002 -9.290844 67.012352 13.991492 0.009414 0.000003 -0.000025 -0.000004 -0.000001 -0.000001 0.031138 0.005651 -0.000000 -23.322671 75.483125 17.080507 0.009205 0.000002 0.000002 -73.565550 84.045560 79.358889 0.008448 0.000000 0.000006 -14.880470 73.262733 19.919895 0.009391 -0.000012 0.000014 -0.000002 -0.000000 0.000010 0.027973 0.012101 -0.000583 -31.794975 63.878012 38.670342 0.010593 -0.000016 0.000026 -110.520165 83.466530 116.520008 0.006645 0.000025 0.000022 -19.066253 75.997377 24.263335 0.007491 -0.000028 -0.000010 -0.000001 0.000002 -0.000001 -0.015632 -0.001750 0.023310 0.029032 -3.311306 -2.943176 -0.032407 0.006662 -0.000675 -27.918895 -75.151349 -55.373979 -0.070170 -0.000029 -0.000003 -21.111442 -25.555767 54.439097 -0.070721 0.000016 -0.000011 4.389258 22.430891 -27.537774 -0.009704 -0.007661 -0.005589 49.228264 24.144176 -15.810471 -0.009371 -0.005462 -0.005442 15.644880 -8.160315 -10.735001 -0.008724 -0.005011 -0.005023 -6.593442 28.084783 -25.523001 -0.006848 -0.003920 -0.003941 -0.000002 0.000005 0.000001 -0.031432 -0.007169 -0.000601 -4.332461 -42.308695 -14.096033 -0.009964 -0.000001 -0.000009 -6.537902 -65.278932 -10.191587 -0.008776 -0.000032 0.000009 -4.086995 -57.717714 -7.408858 -0.007880 -0.000004 0.000006 -0.000004 -0.000006 -0.000000 -0.032706 0.000023 -0.000038 -11.410167 -38.871652 -8.460881 -0.009257 0.000043 -0.000007 -15.179933 -76.156903 -19.304059 -0.008854 -0.000025 -0.000003 -5.401231 -62.296946 -8.925077 -0.009439 0.000011 -0.000004 0.000002 -0.000002 -0.000000 -0.031119 0.005697 -0.000013 -15.907818 -69.084884 -9.215764 -0.009214 0.000010 0.000042 -37.919670 -83.107529 -42.369846 -0.008480 0.000012 -0.000008 -6.860670 -66.006545 -10.545893 -0.009374 0.000011 -0.000018 -0.000006 0.000001 0.000002 -0.027925 0.012126 -0.000633 -34.553333 -80.436665 -27.594039 -0.010607 0.000009 0.000007 -25.655937 -80.742788 -29.986839 -0.006675 0.000008 0.000006 -3.993490 -57.328749 -7.298039 -0.007487 0.000000 -0.000018 -0.000001 0.000001 -0.000001 0.023373 0.000155 -0.017051 -33.352603 -30.440224 4.576788 0.000610 0.001302 -0.103953 64.588448 4.181274 -16.920171 -0.000622 0.005250 -0.107675 -19.147115 19.528503 4.671688 0.000957 -0.035758 -0.018474 -0.093122 -3.559496 -8.405925 -0.000367 -0.025585 -0.000448 -0.000000 -0.000000 0.000002 -0.023373 0.000138 -0.017062 -28.330916 42.153014 8.563946 -0.000622 0.001316 -0.103954 74.218919 -1.335025 -2.274813 0.000627 0.005244 -0.107635 -33.475826 -15.093632 -5.360700 -0.000958 -0.035766 -0.018463 -2.060530 -0.862874 -1.266336 0.000376 -0.025578 -0.000446 0.000001 0.000005 -0.000003 
